<svg xmlns="http://www.w3.org/2000/svg" width="311" height="106" viewBox="0 0 311 106" fill="none"><path d="M31 63L29.6442 68.6121L35.1823 66.9802L31 63ZM180 93L180.105 93.4888L180 93ZM31.4259 66.069C31.6374 66.7066 31.8558 67.335 32.0808 67.9544L33.0207 67.613C32.7989 67.0025 32.5836 66.3829 32.375 65.7541L31.4259 66.069ZM32.8105 69.8728C33.0613 70.503 33.3194 71.1235 33.5848 71.7342L34.502 71.3356C34.2408 70.7346 33.9866 70.1238 33.7396 69.503L32.8105 69.8728ZM34.4241 73.5824C34.7168 74.1995 35.0173 74.8061 35.3255 75.4023L36.2138 74.943C35.9109 74.3571 35.6155 73.7608 35.3277 73.1539L34.4241 73.5824ZM36.2837 77.1779C36.62 77.7752 36.9646 78.3615 37.3174 78.9369L38.1699 78.4141C37.8236 77.8495 37.4854 77.2739 37.1551 76.6874L36.2837 77.1779ZM38.4024 80.6333C38.783 81.204 39.1723 81.7633 39.5701 82.3113L40.3793 81.7237C39.9893 81.1866 39.6076 80.6382 39.2343 80.0784L38.4024 80.6333ZM40.7892 83.9213C41.2128 84.4577 41.6451 84.9825 42.0862 85.4958L42.8446 84.8441C42.4126 84.3413 41.9891 83.8272 41.5741 83.3016L40.7892 83.9213ZM43.4383 87.0044C43.9031 87.5016 44.3767 87.9871 44.8591 88.4612L45.56 87.7479C45.0877 87.2838 44.6239 86.8083 44.1688 86.3215L43.4383 87.0044ZM46.3366 89.8528C46.8401 90.3073 47.3523 90.7503 47.8732 91.1819L48.5113 90.412C48.0012 89.9893 47.4996 89.5555 47.0066 89.1105L46.3366 89.8528ZM49.4643 92.4452C50.0027 92.8546 50.5496 93.2528 51.1049 93.64L51.6769 92.8197C51.1327 92.4403 50.597 92.0502 50.0696 91.6492L49.4643 92.4452ZM52.7949 94.7683C53.3635 95.1315 53.9403 95.4841 54.5251 95.8262L55.03 94.963C54.4563 94.6274 53.8907 94.2817 53.3333 93.9256L52.7949 94.7683ZM56.2976 96.8178C56.8916 97.1355 57.4934 97.443 58.1029 97.7407L58.5417 96.8422C57.9431 96.5498 57.3522 96.2478 56.7692 95.936L56.2976 96.8178ZM59.941 98.5983C60.5561 98.8722 61.1784 99.1367 61.808 99.3918L62.1836 98.4651C61.5643 98.2141 60.9524 97.954 60.3479 97.6848L59.941 98.5983ZM63.6959 100.122C64.3282 100.354 64.9674 100.578 65.6133 100.794L65.9296 99.845C65.2933 99.6328 64.6638 99.4122 64.0414 99.1831L63.6959 100.122ZM67.5368 101.404C68.1834 101.599 68.8365 101.785 69.4959 101.964L69.7575 100.999C69.1069 100.823 68.4628 100.638 67.8253 100.446L67.5368 101.404ZM71.4429 102.464C72.0978 102.623 72.7588 102.775 73.4256 102.92L73.6374 101.942C72.9785 101.8 72.3257 101.65 71.6791 101.492L71.4429 102.464ZM75.3977 103.323C76.0567 103.449 76.7212 103.569 77.3911 103.682L77.5578 102.696C76.8951 102.584 76.2379 102.466 75.5864 102.34L75.3977 103.323ZM79.3892 103.998C80.0496 104.095 80.715 104.187 81.3855 104.272L81.5115 103.28C80.8475 103.195 80.1887 103.105 79.535 103.009L79.3892 103.998ZM83.4082 104.509C84.068 104.58 84.7325 104.646 85.4016 104.706L85.4911 103.71C84.8278 103.65 84.1692 103.585 83.5153 103.515L83.4082 104.509ZM87.4224 104.87C88.0888 104.919 88.7595 104.962 89.4345 105.001L89.4913 104.002C88.8214 103.964 88.156 103.921 87.4951 103.873L87.4224 104.87ZM91.446 105.1C92.1202 105.128 92.7985 105.151 93.4809 105.17L93.5083 104.17C92.8305 104.152 92.157 104.129 91.4877 104.101L91.446 105.1ZM95.4803 105.211C96.1505 105.22 96.8246 105.225 97.5025 105.226L97.5035 104.226C96.8299 104.225 96.1601 104.22 95.4942 104.211L95.4803 105.211ZM99.5241 105.216C100.189 105.208 100.858 105.197 101.531 105.182L101.508 104.182C100.839 104.197 100.174 104.208 99.5129 104.216L99.5241 105.216ZM103.558 105.125C104.224 105.102 104.894 105.076 105.567 105.047L105.523 104.048C104.853 104.077 104.187 104.103 103.524 104.125L103.558 105.125ZM107.576 104.948C108.249 104.912 108.925 104.873 109.604 104.83L109.541 103.832C108.865 103.874 108.192 103.914 107.522 103.95L107.576 104.948ZM111.601 104.694C112.268 104.646 112.938 104.595 113.61 104.541L113.53 103.544C112.86 103.598 112.193 103.649 111.529 103.697L111.601 104.694ZM115.635 104.37C116.295 104.311 116.959 104.25 117.624 104.185L117.529 103.19C116.865 103.254 116.204 103.315 115.547 103.373L115.635 104.37ZM119.63 103.985C120.3 103.915 120.973 103.843 121.648 103.768L121.538 102.775C120.865 102.849 120.194 102.921 119.527 102.99L119.63 103.985ZM123.634 103.542C124.298 103.464 124.965 103.384 125.635 103.301L125.512 102.309C124.845 102.391 124.18 102.471 123.517 102.549L123.634 103.542ZM127.648 103.046C128.306 102.961 128.966 102.873 129.629 102.783L129.495 101.792C128.834 101.882 128.175 101.969 127.519 102.054L127.648 103.046ZM131.624 102.508C132.291 102.414 132.961 102.317 133.632 102.219L133.487 101.23C132.818 101.328 132.15 101.424 131.484 101.517L131.624 102.508ZM135.61 101.925C136.271 101.825 136.934 101.724 137.599 101.62L137.445 100.632C136.781 100.735 136.12 100.837 135.461 100.937L135.61 101.925ZM139.599 101.304C140.257 101.198 140.917 101.091 141.578 100.982L141.416 99.9954C140.756 100.104 140.097 100.211 139.441 100.316L139.599 101.304ZM143.56 100.652C144.222 100.54 144.887 100.426 145.553 100.311L145.383 99.3261C144.718 99.4409 144.055 99.5541 143.394 99.6656L143.56 100.652ZM147.534 99.9656C148.191 99.8499 148.849 99.7326 149.509 99.6139L149.332 98.6297C148.673 98.7482 148.016 98.8653 147.361 98.9808L147.534 99.9656ZM151.494 99.2535C152.155 99.1325 152.816 99.0102 153.48 98.8865L153.297 97.9035C152.634 98.0269 151.973 98.1491 151.314 98.2698L151.494 99.2535ZM155.448 98.5167C156.106 98.3921 156.765 98.2663 157.426 98.1393L157.237 97.1573C156.577 97.2841 155.919 97.4098 155.262 97.5341L155.448 98.5167ZM159.413 97.7546C160.067 97.6272 160.722 97.4986 161.378 97.369L161.184 96.3879C160.529 96.5174 159.874 96.6458 159.222 96.7731L159.413 97.7546ZM163.349 96.9774C164.007 96.8458 164.667 96.7132 165.329 96.5795L165.13 95.5993C164.47 95.7329 163.811 95.8654 163.153 95.9968L163.349 96.9774ZM167.301 96.1787C167.954 96.0452 168.609 95.9108 169.265 95.7755L169.063 94.7961C168.408 94.9313 167.754 95.0656 167.101 95.199L167.301 96.1787ZM171.238 95.3668C171.896 95.2297 172.556 95.0918 173.217 94.953L173.012 93.9743C172.351 94.113 171.692 94.2508 171.034 94.3878L171.238 95.3668ZM175.176 94.5403C175.83 94.402 176.486 94.2629 177.142 94.123L176.934 93.145C176.278 93.2847 175.623 93.4237 174.969 93.562L175.176 94.5403ZM179.116 93.7013C179.445 93.6306 179.775 93.5598 180.105 93.4888L179.895 92.5112C179.565 92.5821 179.235 92.6529 178.906 92.7235L179.116 93.7013ZM180.105 93.4888C180.44 93.4169 180.773 93.3457 181.106 93.2751L180.898 92.2968C180.565 92.3676 180.23 92.4391 179.895 92.5112L180.105 93.4888ZM183.093 92.8592C183.752 92.7232 184.408 92.5897 185.06 92.4588L184.863 91.4783C184.209 91.6096 183.551 91.7434 182.891 91.8798L183.093 92.8592ZM187.011 92.0733C187.682 91.9426 188.35 91.8146 189.014 91.6893L188.829 90.7066C188.162 90.8323 187.493 90.9606 186.819 91.0917L187.011 92.0733ZM190.997 91.3214C191.654 91.2014 192.308 91.0841 192.959 90.9694L192.786 89.9846C192.133 90.0996 191.477 90.2173 190.817 90.3376L190.997 91.3214ZM194.953 90.6244C195.622 90.5108 196.287 90.4 196.949 90.2919L196.788 89.305C196.124 89.4134 195.457 89.5246 194.786 89.6385L194.953 90.6244ZM198.923 89.976C199.59 89.8716 200.252 89.77 200.912 89.6712L200.763 88.6822C200.102 88.7814 199.437 88.8833 198.768 88.9881L198.923 89.976ZM202.918 89.3773C203.583 89.2822 204.244 89.19 204.901 89.1006L204.766 88.1097C204.107 88.1994 203.443 88.292 202.776 88.3874L202.918 89.3773ZM206.89 88.8371C207.565 88.7501 208.236 88.6661 208.903 88.5851L208.782 87.5924C208.113 87.6737 207.44 87.758 206.762 87.8453L206.89 88.8371ZM210.892 88.3508C211.561 88.2744 212.226 88.2011 212.887 88.1307L212.781 87.1363C212.118 87.207 211.45 87.2806 210.779 87.3572L210.892 88.3508ZM214.904 87.9238C215.572 87.8579 216.236 87.795 216.895 87.7351L216.805 86.7392C216.143 86.7994 215.476 86.8625 214.806 86.9286L214.904 87.9238ZM218.901 87.5611C219.578 87.5052 220.25 87.4524 220.917 87.4028L220.843 86.4055C220.173 86.4554 219.498 86.5084 218.819 86.5645L218.901 87.5611ZM222.907 87.2631C223.585 87.2183 224.259 87.1768 224.928 87.1385L224.871 86.1401C224.199 86.1786 223.522 86.2203 222.841 86.2653L222.907 87.2631ZM226.939 87.032C227.607 86.9996 228.271 86.9704 228.93 86.9443L228.891 85.9451C228.229 85.9713 227.562 86.0006 226.891 86.0332L226.939 87.032ZM230.961 86.8733C231.633 86.853 232.3 86.8359 232.963 86.8221L232.942 85.8223C232.276 85.8362 231.606 85.8534 230.931 85.8738L230.961 86.8733ZM234.976 86.7896C235.654 86.782 236.326 86.7777 236.993 86.7768L236.992 85.7768C236.321 85.7777 235.646 85.782 234.965 85.7897L234.976 86.7896ZM238.986 86.7838C239.668 86.7896 240.345 86.7989 241.016 86.8116L241.035 85.8118C240.36 85.7991 239.68 85.7897 238.994 85.7838L238.986 86.7838ZM243.014 86.8598C243.693 86.8798 244.366 86.9032 245.033 86.93L245.073 85.9308C244.402 85.9038 243.726 85.8803 243.044 85.8603L243.014 86.8598ZM247.04 87.0215C247.714 87.056 248.382 87.094 249.044 87.1353L249.106 86.1372C248.44 86.0957 247.768 86.0575 247.091 86.0228L247.04 87.0215ZM251.056 87.2723C251.726 87.3218 252.391 87.3748 253.049 87.4312L253.134 86.4348C252.472 86.3782 251.804 86.3248 251.13 86.275L251.056 87.2723ZM255.063 87.6157C255.731 87.6809 256.392 87.7495 257.047 87.8215L257.157 86.8275C256.497 86.7551 255.832 86.686 255.16 86.6204L255.063 87.6157ZM259.059 88.0552C259.725 88.1367 260.384 88.2217 261.037 88.3099L261.171 87.3189C260.514 87.2301 259.85 87.1446 259.181 87.0626L259.059 88.0552ZM263.042 88.5942C263.706 88.6927 264.364 88.7947 265.014 88.8998L265.174 87.9126C264.519 87.8068 263.857 87.7042 263.189 87.605L263.042 88.5942ZM267.009 89.2359C267.672 89.3521 268.328 89.4716 268.976 89.5942L269.162 88.6117C268.509 88.4882 267.849 88.3679 267.182 88.2509L267.009 89.2359ZM270.957 89.9828C271.618 90.1172 272.272 90.2549 272.919 90.3956L273.132 89.4185C272.481 89.2768 271.822 89.1382 271.156 89.0028L270.957 89.9828ZM274.88 90.8366C275.54 90.9899 276.193 91.1462 276.837 91.3054L277.077 90.3345C276.428 90.1743 275.771 90.0168 275.106 89.8625L274.88 90.8366ZM278.775 91.7982C279.433 91.9706 280.083 92.1459 280.726 92.3237L280.992 91.36C280.346 91.1809 279.691 91.0044 279.028 90.8308L278.775 91.7982ZM282.651 92.8717C283.302 93.0618 283.944 93.2544 284.578 93.4493L284.872 92.4934C284.234 92.2972 283.587 92.1033 282.932 91.9118L282.651 92.8717ZM286.499 94.0542C287.141 94.2613 287.774 94.4704 288.398 94.6813L288.718 93.7339C288.089 93.5216 287.452 93.311 286.806 93.1025L286.499 94.0542ZM290.303 95.3391C290.944 95.565 291.575 95.7924 292.197 96.0211L292.542 95.0825C291.916 94.8524 291.281 94.6234 290.636 94.396L290.303 95.3391ZM294.074 96.7242C294.707 96.9661 295.332 97.2089 295.947 97.4522L296.315 96.5223C295.696 96.2776 295.068 96.0333 294.43 95.7899L294.074 96.7242ZM297.818 98.2044C298.447 98.4614 299.066 98.7183 299.676 98.9746L300.063 98.0528C299.451 97.7952 298.829 97.537 298.196 97.2787L297.818 98.2044ZM301.522 99.7612C302.146 100.03 302.759 100.298 303.363 100.563L303.766 99.6483C303.16 99.3815 302.544 99.1129 301.918 98.8429L301.522 99.7612ZM305.208 101.383C305.832 101.662 306.445 101.938 307.048 102.211L307.46 101.3C306.856 101.027 306.242 100.75 305.617 100.47L305.208 101.383ZM308.885 103.043C309.19 103.182 309.493 103.319 309.794 103.455L310.206 102.545C309.906 102.409 309.603 102.271 309.298 102.133L308.885 103.043Z" fill="#CBFB45"></path><circle opacity="0.1" cx="26" cy="26" r="26" fill="#CBFB45"></circle><path d="M25 28H20L23.5 16H30L27 24H32L24 36L25 28Z" stroke="#CBFB45" stroke-width="2" stroke-linejoin="round"></path></svg>